<?xml version="1.0" standalone="no"?><!DOCTYPE svg PUBLIC "-//W3C//DTD SVG 1.1//EN" "http://www.w3.org/Graphics/SVG/1.1/DTD/svg11.dtd"><svg t="1687876970860" class="icon" viewBox="0 0 1024 1024" version="1.1" xmlns="http://www.w3.org/2000/svg" p-id="2191" xmlns:xlink="http://www.w3.org/1999/xlink" width="200" height="200"><path d="M512 1024c-282.737778 0-512-229.262222-512-512s229.262222-512 512-512 512 229.262222 512 512-229.262222 512-512 512z" fill="#F2F2F2" p-id="2192"></path><path d="M284.444444 853.333333h453.973334v-682.666666H284.444444z" fill="#FFF822" p-id="2193"></path><path d="M738.417778 864.711111H284.444444c-6.257778 0-11.377778-5.12-11.377777-11.377778v-682.666666c0-6.257778 5.12-11.377778 11.377777-11.377778h453.973334c6.257778 0 11.377778 5.12 11.377778 11.377778v682.666666c0 6.257778-5.12 11.377778-11.377778 11.377778z m-442.595556-22.755555h431.217778v-659.911112H295.822222v659.911112z" fill="#6F0EF5" p-id="2194"></path><path d="M673.564444 604.16c0 88.746667-71.68 160.426667-160.426666 160.426667S352.711111 692.337778 352.711111 604.16s71.68-160.426667 160.426667-160.426667 160.426667 71.68 160.426666 160.426667" fill="#FFFFFF" p-id="2195"></path><path d="M513.137778 775.964444C418.702222 775.964444 341.333333 699.164444 341.333333 604.16c0-94.435556 76.8-171.804444 171.804445-171.804444 94.435556 0 171.804444 76.8 171.804444 171.804444 0 94.435556-77.368889 171.804444-171.804444 171.804444z m0-320.853333C430.648889 455.111111 364.088889 521.671111 364.088889 604.16c0 81.92 66.56 149.048889 149.048889 149.048889 81.92 0 149.048889-66.56 149.048889-149.048889S595.057778 455.111111 513.137778 455.111111z" fill="#6F0EF5" p-id="2196"></path><path d="M659.911111 238.933333h27.306667" fill="#F0C419" p-id="2197"></path><path d="M659.911111 227.555556h27.306667v22.755555H659.911111z" fill="#A33FE3" p-id="2198"></path><path d="M329.955556 238.933333h27.306666" fill="#F0C419" p-id="2199"></path><path d="M329.955556 227.555556h27.306666v22.755555H329.955556z" fill="#A33FE3" p-id="2200"></path><path d="M659.911111 796.444444h27.306667" fill="#F0C419" p-id="2201"></path><path d="M659.911111 785.066667h27.306667v22.755555H659.911111z" fill="#A33FE3" p-id="2202"></path><path d="M329.955556 796.444444h27.306666" fill="#F0C419" p-id="2203"></path><path d="M329.955556 785.066667h27.306666v22.755555H329.955556z" fill="#A33FE3" p-id="2204"></path><path d="M587.093333 606.435556c0 46.08-36.977778 83.057778-83.057777 83.057777S420.977778 652.515556 420.977778 606.435556s36.977778-83.057778 83.057778-83.057778 83.057778 36.977778 83.057777 83.057778" fill="#FFF822" p-id="2205"></path><path d="M515.413333 700.871111c-52.337778 0-94.435556-42.666667-94.435555-94.435555 0-52.337778 42.666667-94.435556 94.435555-94.435556 52.337778 0 94.435556 42.666667 94.435556 94.435556 0 52.337778-42.097778 94.435556-94.435556 94.435555z m0-166.115555c-39.822222 0-71.68 32.426667-71.68 71.68s32.426667 71.68 71.68 71.68c39.822222 0 71.68-32.426667 71.68-71.68s-31.857778-71.68-71.68-71.68z" fill="#9D4CE8" p-id="2206"></path><path d="M585.386667 326.542222c0 42.666667-34.133333 76.8-76.231111 76.8C466.488889 403.342222 432.355556 369.208889 432.355556 326.542222s34.133333-76.231111 76.8-76.231111c42.097778 0 76.231111 34.133333 76.231111 76.231111" fill="#FFFFFF" p-id="2207"></path><path d="M509.155556 414.72C460.231111 414.72 420.977778 374.897778 420.977778 326.542222s39.253333-87.608889 88.177778-87.608889C557.511111 238.933333 597.333333 278.186667 597.333333 327.111111S557.511111 414.72 509.155556 414.72z m0-153.031111c-36.408889 0-65.422222 29.013333-65.422223 64.853333S472.746667 391.964444 509.155556 391.964444C544.995556 391.964444 574.577778 362.951111 574.577778 327.111111s-29.582222-65.422222-65.422222-65.422222z" fill="#6F0EF5" p-id="2208"></path></svg>